<svg fill="#E9DFDF" xmlns="http://www.w3.org/2000/svg" viewBox="0 0 118.75 171">
  <path d="M5.23,171c-2.05-.91-3.11-2.45-3.3-4.72-.07-.87-.76-1.69-.88-2.57-.23-1.77-.35-3.56-.36-5.34-.03-4.41,0-8.82,.07-13.22,.05-3.24,.18-6.49,.27-9.73,.24-9.16,.67-18.32,.63-27.47-.03-6.86-.69-13.72-1-20.58-.2-4.53-.56-9.09-.31-13.61,.26-4.72-.07-9.38-.32-14.07-.05-.94-.05-1.94,.2-2.84,.52-1.96,2.32-3.13,4.24-2.95,1.95,.18,3.47,1.61,3.77,3.58,.12,.78,.23,1.56,.34,2.35,.11,.77,.17,1.51,.94,2.04,.32,.22,.44,.89,.45,1.36,.02,1.08,.25,2,.72,3.03,.66,1.42,.81,3.12,1,4.72,.86,7.11,.36,14.2-.32,21.3-.33,3.41-.03,6.9,.14,10.35,.32,6.41,.8,12.8,1.14,19.21,.37,6.99,.71,13.98,.95,20.97,.1,2.83-.08,5.66-.12,8.49,0,.42,.04,.85,.36,1.35,1.17-1.55,2.23-3.18,3.52-4.62,5.78-6.44,11.54-12.89,17.47-19.19,2.85-3.04,5.6-6.07,7.8-9.66,1.77-2.89,4.1-5.43,6.17-8.14,.35-.46,.72-.94,.91-1.47,.85-2.42,1.91-2.99,4.31-2.21,1.68-3.14,3.99-3.99,7.08-2.12,2.5,1.51,4.82,3.4,7.03,5.33,8.86,7.72,17.2,16.02,26.62,23.1,4.17,3.14,7.99,6.75,11.37,11.11,.06-.59,.14-.94,.13-1.29-.13-4.87-.32-9.73-.41-14.6-.08-4.54-.15-9.08-.06-13.62,.16-8.51-.5-16.97-1.15-25.45-.55-7.22-.85-14.47-1.33-21.7-.09-1.33-.67-2.63-.82-3.96-.77-6.7-1.55-13.4-2.17-20.11-.63-6.84-1.19-13.69-1.57-20.54-.2-3.52,.02-7.07,.08-10.61,.02-1.54-.45-1.93-1.96-1.49-.56,.16-1.1,.38-1.67,.49-.52,.09-1.22,.3-1.57,.05-2.18-1.51-4.68-.88-7.01-1.09-3.13-.28-6.3-.15-9.45-.12-.62,0-1.27,.28-1.86,.54-1.38,.61-2.7,1.11-4.07-.04-.27-.22-.77-.2-1.17-.21-7.93-.34-15.85-.68-23.78-1-2.15-.09-3.9-.91-5.25-2.63-.9-1.15-1.2-2.37-.64-3.73,.56-1.35,1.62-2.18,3.09-2.1C45.18,1.64,46.49,.73,47.89,0h1.75c1.77,.13,3.55,.21,5.32,.4,4.68,.48,9.35,.42,14.05,.28,9.01-.26,18.03-.16,27.05-.24,.66,0,1.32-.29,1.98-.44h2.25c1.53,.93,3.28,.96,4.98,1.28,2.27,.42,4.57,.87,6.75,1.62,1.78,.61,2.46,2.2,2.29,3.88-.21,2.07-.48,4.14-.48,6.21-.05,13.25-.03,26.5-.03,39.74,0,.54,.08,1.08,.13,1.61,.44,4.97,1.21,9.94,1.27,14.91,.25,18.82-.5,37.66,1.04,56.46,.44,5.39,.78,10.79,1.29,16.18,.25,2.63,.81,5.24,1.22,7.86v7.75c-.08,.32-.16,.63-.23,.95-.36,1.66-.67,3.33-1.08,4.97-.34,1.39-1.24,2.31-2.6,2.81-.36,.13-.74,.35-1,.64-1.12,1.25-2.17,1.48-3.64,.68-3.11-1.68-5.81-3.87-8.13-6.53-.27-.31-.52-.8-.86-.88-2.15-.5-3.35-2.26-4.83-3.61-10.98-10.06-21.92-20.15-32.88-30.24-1.86-1.71-3.71-3.43-5.53-5.12-.18,.09-.28,.11-.32,.17-1.32,2.08-2.16,4.53-4.48,5.85-.09,.05-.12,.22-.19,.32-2.11,2.83-3.97,5.91-6.39,8.44-7.79,8.15-15.76,16.12-23.7,24.12-2.09,2.11-4.45,3.86-7.23,5.02-.97,.41-2.06,.89-2.7,1.67-1.47,1.8-3.14,3.27-5.25,4.24h-2.5Z"/>
</svg>
