<svg fill="#E9DFDF" xmlns="http://www.w3.org/2000/svg" viewBox="0 0 180.87 139.6">
  <path d="M132.69,139.6h-5.99c-.28-.06-.56-.15-.85-.17-10.22-.46-20.43-.95-30.66-1.33-6.65-.25-13.31-.29-19.96-.47-7.77-.21-15.54-.52-23.32-.7-9.81-.23-19.63-.33-29.44-.57-3.49-.09-6.97-.43-10.46-.63-1.64-.1-3.25-.27-4.89,.39-1.86,.75-3.65-.5-4.1-2.48-.1-.42-.48-.89-.86-1.12-1.19-.72-1.75-1.89-1.62-3.25,.14-1.51,.19-3.04,.16-4.55-.07-3.56-.49-7.15-.26-10.69,.5-7.5,1.16-14.98,.71-22.52-.19-3.08,.38-6.2,.42-9.3,.12-9.97,.21-19.94,.21-29.91,0-5.49-.22-10.98,1.01-16.38,.1-.42,0-.91-.09-1.35C1.28,26.62-.4,18.72,.09,10.57c.11-1.89,.56-3.59,1.55-5.17,1.04-1.66,2.52-2.33,4.46-2.05,.35,.05,.8,.13,1.05-.04,2.37-1.62,5.22-1.57,7.85-2.17,2.24-.51,4.62-.52,6.93-.54,5.5-.05,11.01-1.26,16.52-.07,.4,.09,.83-.01,1.24,.04,3.41,.41,6.76,1,9.34,3.57,.19,.19,.48,.32,.75,.4,1.33,.4,2.19,1.29,2.74,2.54,.13,.29,.44,.67,.7,.7,2.19,.21,3.45,1.67,4.26,3.44,1.28,2.79,2.59,5.61,3.4,8.55,.61,2.2,2.02,2.71,3.82,3.04,.53,.1,1.07,.12,1.61,.17,3.55,.34,7.07,.72,10.66-.11,2.57-.6,5.27-.86,7.91-.82,4.06,.07,8.12,.51,12.18,.83,.47,.04,.91,.37,1.37,.54,.6,.21,1.2,.55,1.81,.57,3.78,.12,7.57,.06,11.35,.27,7.34,.4,14.67,1.28,22.05,.73,1.65-.12,3.32,.08,4.99,.08,1.61,0,3.23-.04,4.84-.15,1.9-.14,3.9-.85,5.68-.47,4.04,.85,7.98,2.2,11.95,3.38,.62,.18,1.16,.67,1.78,.82,4.12,1.02,6.86,4.51,6.66,8.75-.21,4.43-.6,8.85-2.26,13.02,5.83,.95,10.99,2.94,13.58,8.85v10.98c-.07,.15-.17,.29-.19,.45-.8,5.5-2.85,10.47-6.18,14.93-.43,.58-.73,1.3-.97,2-1.65,4.74-3.14,9.55-4.94,14.23-2.37,6.15-4.58,12.42-8.66,17.75-.27,.35-.37,.83-.56,1.25-1.22,2.68-2.32,5.43-3.7,8.03-.84,1.59-2,3.06-3.23,4.38-.81,.86-1.77,1.52-2.37,2.62-.31,.57-1.11,1.06-1.78,1.21-2.55,.6-5.11,1.12-7.7,1.53-2.62,.42-5.27,.67-7.91,1Zm12.68-8.77c.88-1.93,1.76-3.71,2.52-5.55,1.55-3.76,3.03-7.55,4.53-11.33,.93-2.35,1.73-4.77,2.77-7.07,1.57-3.48,3.22-6.93,4.97-10.33,1.48-2.89,2.82-5.81,3.43-9.04,.28-1.45,.84-2.88,1.5-4.21,.9-1.79,1.69-3.58,1.99-5.59,.13-.87,.5-1.8,1.01-2.51,1.46-2.02,1.38-4.5,2.17-6.71,.05-.14,0-.33-.04-.48-.47-1.85-.8-3.76-1.49-5.53-.52-1.35-1.52-2.82-3.07-2.9-9.26-.44-18.53-.91-27.8-.99-8.81-.08-17.62,.31-26.43,.48-1.23,.02-2.49-.18-3.45,.94-.26,.3-.82,.37-1.26,.48-3.58,.88-7.18,.61-10.78,.16-7.59-.96-15.18-1.94-22.78-2.77-1.82-.2-3.75-.1-5.55,.25-3.87,.77-7.64,2.1-11.53,2.63-3.07,.42-5.6,1.48-7.82,3.53-.3,.28-.68,.54-.84,.89-1.49,3.3-4.08,6.09-4.53,9.87-.06,.51-.4,1-.62,1.49-1.45,3.12-2.92,6.24-4.36,9.38-.16,.35-.11,.79-.19,1.18-.18,.87-.2,1.82-.59,2.58-1.41,2.72-2.97,5.37-4.44,8.07-1.13,2.07-1.4,4.68-3.78,5.98-.22,.12-.31,.48-.44,.74-2.55,4.9-5.12,9.79-7.62,14.72-.95,1.87-1.72,3.82-2.73,6.09,2.69,0,5.05-.1,7.41,.02,7.1,.36,14.12,1.71,21.26,1.53,3.57-.09,7.15,.15,10.73,.19,12.27,.15,24.54,.52,36.81,.37,13.63-.16,27.2,.43,40.73,2,3.46,.4,6.91,.97,10.34,1.46ZM12.15,113.19l.49,.08c.74-1.52,1.6-3,2.19-4.57,2.55-6.82,5.58-13.4,9.07-19.81,3.66-6.71,7.5-13.39,9.48-20.88,.12-.44,.33-.85,.52-1.27,.92-2,1.89-3.98,2.75-6,.94-2.2,2.28-4.03,4.25-5.41,1.05-.74,2.04-1.59,2.96-2.48,1.67-1.6,3.59-2.72,5.86-3.1,2.99-.5,6.02-.73,8.98-1.35,6.85-1.43,13.7-1.42,20.6-.48,4.08,.55,8.16,1.34,12.26,1.44,13.18,.31,26.37,.43,39.55,.45,6.58,0,13.14-.08,19.69,.64,.67,.07,.97-.15,1.19-.76,.39-1.09,.83-2.18,1.31-3.23,.85-1.88,1.76-3.73,2.67-5.67-.37-.18-.69-.4-1.03-.49-2.86-.67-5.57-1.79-8.54-2.21-7.26-1.02-14.55-1.57-21.85-2-9.67-.57-19.35-.75-29.05-.59-7.87,.12-15.69-.86-23.47-2.07-2.62-.41-5.26-.72-7.89-1.04-1.38-.17-2.82-.06-4.13-.45-4.25-1.27-7.77-3.91-10.09-7.52-2.22-3.48-4.01-7.22-6.94-10.21-.29-.29-.43-.74-.73-1-.37-.32-.84-.74-1.28-.76-6.6-.22-13.05-2.27-19.72-1.64-1.75,.17-3.5,.43-5.24,.74-.85,.15-1.64,.61-2.49,.77-.82,.16-1.09,.55-1.06,1.35,.16,4.99,.29,9.97,.45,14.96,0,.28,.08,.58,.21,.84,.89,1.9,1.07,3.91,.98,5.97-.19,4.28-.28,8.56-.59,12.83-.29,4.17,.08,8.42-1.36,12.48-.12,.34-.07,.74-.06,1.11,.11,4.94,.34,9.89,.32,14.83-.03,10.02-.18,20.04-.28,30.06-.02,2.15,0,4.3,0,6.45Z"/>
</svg>
