<svg xmlns="http://www.w3.org/2000/svg" width="30" height="30" viewBox="0 0 30 30">
  <path id="GitHub" d="M11.371,30h0a14.771,14.771,0,0,1-4.532-2A15.232,15.232,0,0,1,.858,20.313,15.5,15.5,0,0,1,1.179,9.3,15.188,15.188,0,0,1,4.393,4.459,14.94,14.94,0,0,1,9.161,1.2a14.844,14.844,0,0,1,11.677,0,14.94,14.94,0,0,1,4.768,3.263A15.29,15.29,0,0,1,30,15.224a15.391,15.391,0,0,1-.858,5.088A15.235,15.235,0,0,1,23.161,28a14.791,14.791,0,0,1-4.532,2V24.8h-.008c.005-.083.008-.165.008-.245a3.694,3.694,0,0,0-1.368-2.883,9.685,9.685,0,0,0,5.015-1.782,5.933,5.933,0,0,0,2.16-4.911A6.907,6.907,0,0,0,22.749,10.3a6.655,6.655,0,0,0,.382-2.645A2.247,2.247,0,0,0,22.694,6.2a.28.28,0,0,0-.145-.029A11.187,11.187,0,0,0,18.6,7.919,14.523,14.523,0,0,0,15,7.5a14.379,14.379,0,0,0-3.736.453,11.18,11.18,0,0,0-4.006-1.79.28.28,0,0,0-.145.029,2.356,2.356,0,0,0-.441,1.529,6.63,6.63,0,0,0,.445,2.735,6.507,6.507,0,0,0-1.158,2.06,7.544,7.544,0,0,0-.394,2.459,5.934,5.934,0,0,0,2.16,4.911,9.683,9.683,0,0,0,5.015,1.782,3.715,3.715,0,0,0-1.277,2.061l-.116.109a2.732,2.732,0,0,1-1.706.628,2.7,2.7,0,0,1-.978-.189,4.944,4.944,0,0,1-1.8-1.521A3.47,3.47,0,0,0,4.894,21.3a4.423,4.423,0,0,0-.5-.047c-.089,0-.135.012-.145.039-.02.051.09.154.272.324A6.31,6.31,0,0,1,5.8,23.185l.2.354c.817,1.476,1.227,2.216,2.512,2.437a7.95,7.95,0,0,0,1.34.142,5.026,5.026,0,0,0,1.527-.267V30Z" fill="#363636"/>
</svg>
