<svg xmlns="http://www.w3.org/2000/svg" width="30" height="29.999" viewBox="0 0 30 29.999">
  <g id="LinkedIn" transform="translate(0.001 -0.001)">
    <path id="Subtraction_19" data-name="Subtraction 19" d="M24,30H6a6.007,6.007,0,0,1-6-6V6A6.007,6.007,0,0,1,6,0H24a6.007,6.007,0,0,1,6,6V24A6.007,6.007,0,0,1,24,30Zm-11.7-18.455V24.786h4.029V17.3a2.3,2.3,0,0,1,4.606,0v7.485h4.029V16.438a4.892,4.892,0,0,0-8.635-3.151V11.543Zm-6.909,0V24.786h4.03V11.544ZM7.4,5.211A2.361,2.361,0,1,0,9.76,7.572,2.363,2.363,0,0,0,7.4,5.211Z" transform="translate(-0.001 0.001)" fill="#363636"/>
  </g>
</svg>
