<svg width="30" height="30" viewBox="0 0 30 30" fill="none" xmlns="http://www.w3.org/2000/svg">
<path d="M15.0973 29.2854C12.8316 29.2854 10.8146 28.9765 9.04612 28.3586C7.27765 27.7478 5.78263 26.8493 4.56104 25.6632C3.33944 24.4843 2.40905 23.0425 1.76984 21.338C1.13064 19.6334 0.811035 17.6945 0.811035 15.5212C0.811035 13.3763 1.13064 11.4303 1.76984 9.68313C2.41615 7.93597 3.3572 6.43739 4.593 5.18739C5.82879 3.93029 7.33802 2.96438 9.12069 2.28966C10.9105 1.61495 12.9488 1.27759 15.2358 1.27759C17.3522 1.27759 19.2414 1.58654 20.9034 2.20444C22.5724 2.82233 23.9858 3.70302 25.1434 4.84648C26.3082 5.98284 27.1924 7.33583 27.7961 8.90543C28.4069 10.4679 28.7088 12.1973 28.7017 14.0936C28.7088 15.4005 28.5951 16.6007 28.3608 17.6945C28.1264 18.7882 27.7571 19.7435 27.2528 20.5603C26.7556 21.3699 26.1022 22.0127 25.2926 22.4885C24.4829 22.9573 23.5028 23.2236 22.3522 23.2875C21.5284 23.3515 20.8608 23.2911 20.3494 23.1064C19.838 22.9218 19.4474 22.6483 19.1775 22.2861C18.9147 21.9168 18.7443 21.4871 18.6662 20.997H18.5383C18.3679 21.4232 18.034 21.8103 17.5369 22.1583C17.0397 22.4992 16.4325 22.7655 15.7152 22.9573C15.0049 23.1419 14.2485 23.2094 13.446 23.1597C12.6079 23.11 11.8125 22.9147 11.0596 22.5738C10.3139 22.2328 9.64981 21.7392 9.06743 21.0929C8.49214 20.4466 8.0376 19.6476 7.70379 18.6959C7.37709 17.7442 7.21018 16.6434 7.20308 15.3934C7.21018 14.1576 7.38419 13.0816 7.7251 12.1654C8.07311 11.2492 8.53121 10.4786 9.09939 9.85358C9.67467 9.22858 10.3139 8.73853 11.017 8.38341C11.7201 8.0283 12.4268 7.80103 13.137 7.70159C13.9396 7.58086 14.6995 7.58086 15.4169 7.70159C16.1342 7.82233 16.7379 8.01765 17.2279 8.28753C17.7251 8.55742 18.034 8.84861 18.1548 9.16111H18.3039V7.96793H21.6385V18.3657C21.6456 18.8557 21.7556 19.2357 21.9687 19.5056C22.1818 19.7755 22.4694 19.9104 22.8316 19.9104C23.3217 19.9104 23.7301 19.6938 24.0568 19.2605C24.3906 18.8273 24.6392 18.1632 24.8025 17.2684C24.973 16.3735 25.0582 15.2336 25.0582 13.8486C25.0582 12.5134 24.8806 11.3415 24.5255 10.333C24.1775 9.31736 23.6875 8.45444 23.0554 7.74421C22.4304 7.02688 21.7024 6.44449 20.8714 5.99705C20.0404 5.54961 19.1385 5.2229 18.1654 5.01694C17.1995 4.81097 16.2052 4.70799 15.1825 4.70799C13.414 4.70799 11.8693 4.97787 10.5483 5.51765C9.22723 6.05032 8.12638 6.79961 7.24569 7.76552C6.36501 8.73142 5.7045 9.86424 5.26416 11.164C4.83092 12.4566 4.61075 13.8664 4.60365 15.3934C4.61075 17.0766 4.84513 18.5681 5.30677 19.8678C5.77552 21.1604 6.46444 22.247 7.37353 23.1277C8.28263 24.0084 9.40478 24.676 10.74 25.1306C12.0752 25.5851 13.6093 25.8124 15.3423 25.8124C16.159 25.8124 16.9581 25.752 17.7393 25.6313C18.5206 25.5176 19.2272 25.3756 19.8593 25.2051C20.4914 25.0418 20.9992 24.882 21.3828 24.7257L22.4375 27.8152C21.99 28.0709 21.3828 28.3088 20.6157 28.529C19.8558 28.7563 18.9964 28.9374 18.0376 29.0723C17.0859 29.2144 16.1058 29.2854 15.0973 29.2854ZM14.6072 19.6547C15.4737 19.6547 16.1626 19.4878 16.674 19.154C17.1924 18.8202 17.5617 18.3266 17.7819 17.6732C18.0092 17.0127 18.1157 16.1995 18.1015 15.2336C18.0944 14.3813 17.9843 13.6604 17.7713 13.0709C17.5653 12.4743 17.2066 12.0233 16.6953 11.7179C16.191 11.4054 15.4879 11.2492 14.5859 11.2492C13.7975 11.2492 13.1264 11.4161 12.5724 11.7499C12.0255 12.0837 11.6065 12.5524 11.3153 13.1561C11.0312 13.7527 10.8856 14.4559 10.8785 15.2655C10.8856 16.0184 11.0063 16.7321 11.2407 17.4068C11.4751 18.0745 11.8622 18.6178 12.4019 19.0368C12.9417 19.4488 13.6768 19.6547 14.6072 19.6547Z" fill="#363636"/>
</svg>
