<svg width="26" height="26" viewBox="0 0 26 26" fill="#363636" xmlns="http://www.w3.org/2000/svg">
<path fill-rule="evenodd" clip-rule="evenodd" d="M20.4246 11.2323L17.5962 14.0607C16.2293 15.4276 14.0132 15.4276 12.6464 14.0607C12.2746 13.6889 12.0039 13.2542 11.8344 12.7909L9.91043 13.3495C10.1727 14.1262 10.6132 14.856 11.2322 15.4749C13.3801 17.6228 16.8625 17.6228 19.0104 15.4749L21.8388 12.6465C23.9867 10.4986 23.9867 7.01622 21.8388 4.86834C19.6909 2.72045 16.2085 2.72045 14.0606 4.86834L11.7626 7.16632L13.1769 8.58053L15.4748 6.28255C16.8417 4.91571 19.0577 4.91571 20.4246 6.28255C21.7914 7.64938 21.7914 9.86546 20.4246 11.2323Z" fill="black"/>
<path fill-rule="evenodd" clip-rule="evenodd" d="M5.57542 14.7677L8.40385 11.9393C9.77068 10.5724 11.9868 10.5724 13.3536 11.9393C13.7254 12.3111 13.9961 12.7458 14.1656 13.2091L16.0896 12.6505C15.8273 11.8738 15.3868 11.144 14.7678 10.5251C12.6199 8.37718 9.13752 8.37718 6.98963 10.5251L4.16121 13.3535C2.01332 15.5014 2.01332 18.9838 4.16121 21.1317C6.30909 23.2795 9.7915 23.2795 11.9394 21.1317L14.2374 18.8337L12.8231 17.4195L10.5252 19.7175C9.15833 21.0843 6.94225 21.0843 5.57542 19.7175C4.20858 18.3506 4.20858 16.1345 5.57542 14.7677Z" fill="black"/>
</svg>
