<svg fill="#E9DFDF" xmlns="http://www.w3.org/2000/svg" viewBox="0 0 134.7 170.71">
  <path d="M134.7,147.28c-.33,2.42-.65,4.84-1,7.25-.1,.69-.32,1.36-.53,2.19,.09,.11,.3,.35,.49,.61,1.7,2.27,.65,5.38-2.07,6.21-2.92,.89-5.91,.72-8.91,.67-.58,0-1.17,.34-1.74,.55-1.7,.64-3.35,1.68-5.09,1.85-4.46,.44-8.95,.59-13.43,.66-2.92,.05-5.77,.27-8.63,.93-6.18,1.43-12.47,1.2-18.75,.89-4.01-.19-7.99-.81-12.05-.21-2.49,.36-5.07,.02-7.6,.16-3.64,.2-7.28,.57-10.92,.81-3.56,.24-7.13,.48-10.7,.58-5.73,.16-11.47,.29-17.21,.25-3.02-.02-6.04-.34-9.05-.67-2.37-.27-3.39-2.15-2.59-4.35,.11-.29,.14-.77-.02-.98-2.14-2.72-2.73-5.94-2.94-9.24-.2-3.15-.15-6.31-.31-9.47-.18-3.53-.66-7.04-.69-10.57-.06-7.19,.03-14.39,.19-21.58,.18-7.87-.32-15.69-.93-23.54-.47-6.07-.13-12.21,.13-18.31,.17-3.89,.8-7.77,1.31-11.64,.38-2.95,2.67-4.74,5.45-4.41,2.67,.31,4.45,2.76,4.23,5.67-.35,4.69-.92,9.38-.85,14.06,.1,7.14,.55,14.28,1.04,21.41,.52,7.48,.58,14.94,.32,22.44-.32,9.31-.28,18.63-.28,27.94,0,2.94,.37,5.89,.57,8.83,.01,.17,.01,.34,.07,.49,.42,1.17,.55,2.69,1.37,3.4,.69,.59,2.21,.38,3.34,.28,7.24-.65,14.48-1.33,21.71-2.06,7.73-.78,15.47-1.71,23.26-1.33,5.31,.26,10.61,.73,15.9,1.28,5.56,.57,11.02,0,16.51-.81,4.15-.61,8.32-1.12,12.49-1.45,4.35-.34,8.72-.46,13.08-.56,1.49-.04,3,.24,4.72,.4-.36-1.56-.65-2.85-.96-4.12-.9-3.65-1.23-7.36-1.42-11.1-.23-4.48-.74-8.94-1.08-13.42-.17-2.24-.39-4.49-.35-6.73,.17-8.95-.63-17.86-1.08-26.78-.49-9.71-1.67-19.41-.97-29.16,.72-9.99,1.44-19.98,2.23-29.97,.48-6.08,1.11-12.15,1.68-18.41-1.42-.3-2.6-.69-3.81-.78-4.02-.3-8.04-.65-12.06-.7-14.43-.17-28.86-.22-43.29-.34-5.66-.04-11.3-.31-16.86-1.47-1.86-.39-2.96-1.52-3.12-3.23-.15-1.63,.82-2.86,2.36-3.74,.89-.51,1.57-1.51,2.15-2.4,.74-1.13,1.65-1.61,3-1.6,6.52,.04,13.04,.01,19.57,0,.25,0,.51,.02,.74-.05C73.25,1.31,75.15,.65,77.06,0c1.66,0,3.33,0,4.99,0,4.46,.41,8.91,.99,13.38,1.19,7.47,.32,14.96,.35,22.44,.6,1.51,.05,3.01,.53,4.52,.79,.89,.15,1.81,.4,2.7,.34,2.59-.18,4.33,1.21,4.66,3.84,.13,1.05,.52,1.9,1.4,2.64,.93,.78,1.75,1.78,2.38,2.83,.78,1.32,.51,3.03-.74,3.8-1.17,.73-1.08,1.6-.95,2.64,.06,.49,.1,.99,.1,1.49,.06,11.35,.16,22.7,.17,34.05,0,7.86-.26,15.72-.14,23.58,.07,4.81,.66,9.62,.97,14.43,.47,7.3,.89,14.61,1.34,21.91,.12,1.98,.29,3.96,.44,5.94v27.21Z"/><path d="M95.08,48.11c-2.75,.37-5.49,.72-8.23,1.12-.24,.03-.54,.34-.63,.58-.36,1.05-1.13,1.49-2.16,1.59-3.64,.34-7.27,.69-10.91,1.02-.82,.07-1.79,.37-2.45,.06-3.64-1.71-7.43-.59-11.14-.78-1.62-.08-3.24,0-4.86,.07-.69,.03-1.41,.14-2.05,.38-1.17,.43-2.08,.11-2.97-.66-.36-.31-.9-.58-1.35-.57-4.82,.07-9.64,.23-14.47,.32-1.39,.03-2.81,.05-4.17-.16-1.58-.25-2.6-1.29-2.87-2.9-.25-1.56,.36-2.9,1.72-3.58,1.35-.67,2.86-1.25,4.34-1.38,7.82-.68,15.65-1.33,23.49-1.75,10.09-.55,20.19-.85,30.28-1.31,1.7-.08,3.39-.33,5.07-.58,1.93-.29,3.73-.23,5.22,1.26,.21,.21,.59,.27,.89,.37,1.65,.58,2.59,2.02,2.44,3.77-.13,1.61-1.35,2.89-3.06,3.13-.7,.1-1.41,.11-2.11,.15l-.02-.17Z"/><path d="M52.02,83.17c-2.09-.14-4.78-.34-7.47-.48-.81-.04-1.65,.01-2.45,.16-2.17,.4-3.85-1.66-3.13-3.95,.5-1.6,1.67-2.65,3.26-2.96,2.27-.45,4.58-.8,6.89-.98,8.74-.7,17.48-1.35,26.22-1.93,3.77-.25,7.56-.3,11.34-.48,.43-.02,.97-.24,1.23-.55,1.68-2,5.65-2.93,8-1.74,2.34,1.18,4.22,2.95,5.83,4.98,1.36,1.72,1.01,3.85-.89,4.92-1.11,.63-2.47,1.08-3.74,1.14-12.08,.51-24.17,.92-36.25,1.37-2.74,.1-5.48,.31-8.83,.5Z"/><path d="M77.8,104.33c1.58,0,3.16,0,4.74,0,2.64-.02,5.2-.17,7.69-1.4,2.86-1.41,5.95-1.8,9.06-.59,1.36,.53,2.67,1.29,3,2.76,.46,2.04-.18,4.03-1.04,5.87-.22,.46-1.07,.8-1.67,.88-2.2,.28-4.41,.55-6.62,.59-6.56,.11-13.11,.15-19.67,.13-2.5,0-4.58-1.38-6.67-2.55-1.25-.7-1.64-2.29-1.19-3.64,.44-1.34,1.68-2.21,3.28-2.22,3.03-.02,6.06,0,9.1,0v.17Z"/>
</svg>
