<?xml version="1.0" encoding="UTF-8"?>
<svg id="a" xmlns="http://www.w3.org/2000/svg" viewBox="0 0 3167.02 1595.28">
  <path fill="#363636" d="M1813.76,720.78c-19.72,10.01-33.08,17.48-46.97,23.74-85.97,38.76-176.09,40.37-267.67,29.89-8.45-.97-17.41,2.26-26.1,3.72-30.55,5.14-61.39,9.07-91.54,15.97-23.15,5.29-45.04,16.2-68.22,21.25-24.89,5.42-50.64,6.91-76.01,10.14-5.38,.68-11.58-.01-15.98,2.46-43.53,24.41-88.93,45.19-121.5,86.28-88.25,111.33-178.02,221.46-267.75,331.61-25.8,31.67-53.19,62.07-80.46,92.51-25.4,28.34-56.15,49-94.09,55.78-37.82,6.76-50.46-5.41-45.19-43.61,1.83-13.23,8.17-26.43,14.82-38.32,78.55-140.28,190.72-250.53,315.7-348.76,44.5-34.97,91.8-66.37,137.66-99.64,9.61-6.98,18.48-14.98,25-27.48-12.19,5.14-24.6,9.83-36.54,15.51-31.47,14.98-63.92,14.28-97.94,11.36-23.76-2.03-48.26,6.62-72.49,7.06-13.11,.24-26.36-6.75-45.92-12.27-33.88,17.76-75.47,34.83-123.15,18.54-5.23-1.79-13.13,5.19-20.05,7.2-30.73,8.91-61.21,19.18-92.47,25.57-19.83,4.05-35.25-4.67-33.31-33.92-16.38,8.73-28.36,17.75-41.84,21.76-31.86,9.47-64.13,18.28-96.83,23.97-21.35,3.72-37.02,10.79-50.14,29.14-44.26,61.94-88.67,123.9-136.07,183.43-47.35,59.47-97.56,116.76-148.31,173.4-13.81,15.42-32.97,27.22-51.67,36.82-25.03,12.85-48.83,2.11-53.25-24.85-4.29-26.16-8.36-54.52-2.82-79.79,48.42-220.73,158.19-307.77,355.29-347.24,22.59-4.52,37.97-13.38,52.13-31.51,62.27-79.79,126.12-158.36,189.37-237.4,4.51-5.64,8.82-11.45,10.99-20.81-11.98,5.85-24.12,11.42-35.93,17.61-55.36,28.98-113.67,45.75-176.69,40.97-19.6-1.49-32.53,5.67-45.12,20.51-78.28,92.26-161.49,179.52-261.56,249.01-6.87,4.77-13.21,12.25-20.71,13.67-10.38,1.97-21.62-.62-32.5-1.26,3.84-9.96,4.85-23.16,11.98-29.36,41.29-35.92,86.03-68.06,125.76-105.55,49.81-47.01,95.92-97.94,140.57-144.03-14.36-19.61-33.54-34.29-35.16-50.71-2.4-24.3,2.8-52.11,13.31-74.41,33.47-71,88.97-124.99,147.25-175.93,6.77-5.92,15.8-12,24.23-12.7,16.63-1.37,36.92-4.24,49.18,3.64,8.14,5.22,10.15,29.74,5.88,42.63-12.17,36.69-26.49,73.16-44.59,107.27-20.29,38.24-45.65,73.79-73.82,118.46,32.35-4.81,59.24-5,83.5-13.08,106.64-35.52,196.39-99.86,280.56-172.08,35.88-30.78,67.47-66.5,102.13-98.78,13.43-12.5,28.94-23.85,45.46-31.52,8.82-4.09,28.32-2.95,31.43,2.46,4.99,8.68,3.37,24.15-1,34.39-4.45,10.42-14.95,18.72-23.92,26.68-29.88,26.51-58.98,54.14-90.69,78.31-107.78,82.14-186.12,191.27-272.02,293.43-35.07,41.71-67.92,85.28-101.78,128.01,1.17,2.66,2.34,5.32,3.52,7.99,20.17-5.8,41.41-9.25,60.26-17.91,32.79-15.06,64.08-33.37,96.06-50.21,8.19-4.32,16.39-10.94,24.96-11.62,9.9-.78,24.82,.74,29.07,7.01,4.19,6.18,.82,21.86-4.75,29.18-7.47,9.83-20.25,15.63-26.69,27.64,42.78-10.74,82.3-24.49,103.83-65.66,3.33-6.38,8.42-14.8,14.23-16.28,10.53-2.68,23.97-4.16,32.67,.48,4.52,2.41,4.3,19.94,1.15,28.85-3.78,10.7-12.96,19.5-16.13,35.2,19.23-7.98,39.43-14.23,57.47-24.33,26.65-14.93,51.05-33.93,77.94-48.34,9.2-4.93,23.01-1.3,34.72-1.58-2.4,11.53-2.8,24.02-7.8,34.28-4.18,8.59-13.73,14.57-20.91,21.71,1.37,2.25,2.75,4.49,4.12,6.74,19.18-12.1,39.02-23.3,57.36-36.56,21.03-15.2,39.8-33.66,61.49-47.73,8.07-5.24,21.61-2.07,32.66-2.74-1.03,11.61,2.04,26.42-3.98,34.14-11.66,14.96-28.45,25.94-41.97,40.63,61.91-24.2,127.36-41.36,176.88-89.8,23.89-23.36,46.34-48.19,69.61-72.18,4.49-4.63,9.41-11.4,14.77-12.07,10.79-1.35,24.5-2.65,32.18,2.8,4.85,3.44,5.22,22.5,.27,28.76-19.41,24.57-41.28,47.29-63.19,69.77-9.58,9.84-21.44,17.45-34.76,28.07,28.14,0,53.91,4,77.87-.89,41.38-8.45,77.23-29.76,108.73-58.79,8.4-7.74,24.08-14.14,34.04-11.66,8.36,2.09,13.27,17.99,23.26,33.18,36.8-23.82,84.14-43.75,116.96-77.69,97.43-100.77,190.37-206,282.4-311.79,30.19-34.71,52.26-76.48,77.98-115.06,6.68-10.02,12.92-20.36,19.81-30.23,8.69-12.45,20.13-28.12,35.05-15.29,7.97,6.85,11.72,29.55,6.43,38.93-20.42,36.18-43.46,71.25-68.81,104.21-54.59,70.97-93.22,150.83-137.32,227.68,2.21,2.23,4.42,4.47,6.63,6.7,15.07-10.55,31.17-19.91,45.05-31.84,135.21-116.28,269.86-233.22,405.07-349.49,69.7-59.93,139.91-119.28,210.82-177.77,7.36-6.07,21.09-4.44,31.86-6.38,.99,12.89,7.68,29.68,1.98,37.99-22.99,33.51-47.51,66.58-75.59,95.86-113.79,118.67-229.78,235.24-343.57,353.91-51.4,53.61-99.6,110.29-149.13,165.69-4.76,5.32-8.64,11.43-13.65,18.13,58.96,1.49,61.8,3.73,48.77,46.64,28.98-8.05,54.32-13.81,78.68-22.34,13.79-4.83,25.26-16.48,39.11-20.87,11.88-3.76,25.64-1.56,38.58-2v41.58c32.7-14.49,69.34-29.85,105.12-47,14.32-6.86,28.66-27.05,42.38-7.95,6.7,9.32-1.96,29.66-4.01,48.07,28.41,5.14,59.13-9.68,88.24-26,20.82-11.67,38.93-28.23,57.97-42.98,11.68-9.04,23.05-22.79,38.51-9.01,14.72,13.11,6.54,26.61-3.4,39.12-3.29,4.14-5.18,9.4-12.03,22.25,33.73-15.36,60.21-27.49,86.74-39.47,21.96-9.92,43.91-19.84,66.01-29.43,19.85-8.61,36.77-8.72,41.76,17.17,55.26-10.34,92.81-47,133.17-78.96,13.3-10.54,28.47-24.51,43.07-6.14,14.33,18.02,.49,32.94-13.77,44.72-15,12.39-31.38,23.19-45.75,36.23-10.87,9.86-19.54,22.15-33.25,38.08,44.23,12,79.97,8.34,113.45-5,70.97-28.27,137.62-63.53,193.43-118.12,30.26-29.6,66.13-53.92,101.5-77.58,9.48-6.34,31.18-7.19,38.93-.67,15.05,12.66,1.17,26.32-9.08,37.38-100.98,109.01-200.17,219.75-303.59,326.4-64.56,66.58-118.52,139.83-167.41,218.05-84.1,134.56-168.74,268.84-256.64,400.93-26.9,40.42-63.65,74.88-99.03,108.8-15.21,14.59-37.5,23.9-58.22,30.1-21.72,6.5-38.32-6.51-36.32-29.24,1.79-20.41,6.99-43.08,18.22-59.66,57.74-85.28,117.06-169.53,177.43-252.99,91.09-125.92,196.37-239.71,301.43-354.01,55.54-60.43,99.57-131.42,152.81-203.05-11.96,3.67-18.05,6.44-24.41,7.34-42.74,6.05-85.47,15.64-128.33,16.32-37.96,.6-43.59-9.26-47.83-41.03-40.46,1.93-80.36,3.42-120.19,6.06-7.93,.52-15.75,4.99-23.3,8.35-29.66,13.19-59.03,27.05-88.82,39.92-24.82,10.72-47.22,8.98-62.82-15.02-57.72,22.35-113.89,58.27-178.53,12.61-23.18,7.12-49.18,19.05-76.21,22.25-25.4,3-51.88-3.25-77.9-5.36-4.39-.36-8.93-1.12-13.19-.43-28.91,4.74-57.76,9.82-79.99,13.65,14.67,36.1,38.82,72.94,43.03,111.93,4.7,43.52,1.99,93.97-16.12,132.72-72.77,155.7-194.2,254.65-366.36,285.86-9.99,1.81-20.33,2.26-30.51,2.42-60.12,.98-78.35-19.54-63.7-78.61,8.17-32.93,21.23-65.39,36.85-95.61,69.53-134.57,144.22-266.06,242.55-382.49,2.16-2.56,3.69-5.64,9.55-14.77Zm-254.13,526.19c13.35,1.03,20.6,2.31,27.77,1.98,14.82-.68,30.09-.25,44.32-3.73,143.3-35.01,250.16-119.37,312.11-251.49,48.78-104.03,16.39-189.95-86.72-252.62-2.99,3.21-6.22,6.47-9.21,9.93-109.37,126.94-190.85,271.44-264.16,420.9-11.04,22.5-15.67,48.13-24.12,75.03ZM46.74,1304.65c125.85-101.47,201.88-240.27,302.4-364.68-177.03,22.87-335.79,214.65-302.4,364.68ZM1848.52,677.86c118.89-129.67,236.2-257.6,357.85-390.28-8.73,3.36-11.54,3.7-13.32,5.23-73.2,62.93-145.92,126.44-219.58,188.83-48.05,40.7-96.79,80.69-146.76,118.99-11.49,8.81-29.09,11.87-44.25,13.16-22.22,1.89-32.59-11.39-29.15-33.3,2.69-17.11,7.17-33.95,11.96-55.99-19.35,21.23-35.02,38.25-50.5,55.44-15.58,17.3-30.99,34.76-49,55.01q87.46-2.77,182.75,42.91Zm-862.03,313.99c-2.54-2.01-5.08-4.02-7.62-6.03-127.78,101.57-244.89,212.64-318.72,363.26,23.97-11.93,46.15-26.2,64.28-44.48,26.1-26.32,49.84-55.06,73.54-83.63,63.14-76.13,125.72-152.72,188.52-229.12Zm1293.85,549.3c138.89-112.34,208.94-274.64,304.81-418.32-109.92,133.3-216.88,268.75-304.81,418.32ZM480.21,394.17c-57.45,39.99-103.79,88.37-139.22,146.42-8.51,13.94-15.45,29.77-18.65,45.63-1.61,7.99,5.16,24.03,11.06,25.62,8.3,2.23,23.72-2.59,28.46-9.57,32.22-47.44,63.45-95.63,92.77-144.91,11.49-19.31,17.23-42.03,25.58-63.19Zm1083.75,344.9c47.47-3.27,87.41-6.02,127.34-8.77,.09-2.66,.19-5.32,.28-7.97-27.11-7.94-64.37,4.68-73.56-37.72-17.15,17.28-32.09,32.33-54.06,54.46Z"/>
  <path fill="none" class="b" d="M1559.63,1246.97c8.45-26.9,13.08-52.53,24.12-75.03,73.31-149.45,154.79-293.96,264.16-420.9,2.98-3.46,6.22-6.72,9.21-9.93,103.12,62.67,135.5,148.59,86.72,252.62-61.95,132.13-168.81,216.48-312.11,251.49-14.24,3.48-29.5,3.04-44.32,3.73-7.17,.33-14.41-.96-27.77-1.98Z"/>
  <path fill="none" class="b" d="M46.74,1304.65c-33.39-150.02,125.37-341.81,302.4-364.68-100.51,124.41-176.55,263.2-302.4,364.68Z"/>
  <path fill="none" class="b" d="M1848.52,677.86q-95.29-45.68-182.75-42.91c18.02-20.24,33.42-37.71,49-55.01,15.48-17.19,31.15-34.21,50.5-55.44-4.79,22.04-9.28,38.88-11.96,55.99-3.44,21.92,6.93,35.19,29.15,33.3,15.16-1.29,32.76-4.36,44.25-13.16,49.97-38.3,98.71-78.28,146.76-118.99,73.66-62.4,146.38-125.9,219.58-188.83,1.78-1.53,4.59-1.87,13.32-5.23-121.65,132.68-238.96,260.61-357.85,390.28Z"/>
  <path fill="none" class="b" d="M986.49,991.85c-62.8,76.41-125.38,153-188.52,229.12-23.7,28.57-47.44,57.31-73.54,83.63-18.13,18.28-40.31,32.55-64.28,44.48,73.83-150.62,190.94-261.7,318.72-363.26,2.54,2.01,5.08,4.02,7.62,6.03Z"/>
  <path fill="none" class="b" d="M2280.33,1541.15c87.93-149.56,194.88-285.01,304.81-418.32-95.86,143.67-165.92,305.98-304.81,418.32Z"/>
  <path fill="none" class="b" d="M480.21,394.17c-8.36,21.17-14.09,43.89-25.58,63.19-29.32,49.27-60.55,97.47-92.77,144.91-4.74,6.98-20.16,11.81-28.46,9.57-5.9-1.59-12.67-17.63-11.06-25.62,3.2-15.86,10.14-31.68,18.65-45.63,35.43-58.05,81.77-106.43,139.22-146.42Z"/>
  <path fill="none" class="b" d="M1563.96,739.06c21.97-22.13,36.9-37.18,54.06-54.46,9.2,42.4,46.45,29.78,73.56,37.72-.09,2.66-.19,5.32-.28,7.97-39.93,2.75-79.87,5.5-127.34,8.77Z"/>
</svg>
